<svg width="184" height="184" viewBox="0 0 184 184" fill="none" xmlns="http://www.w3.org/2000/svg">
<mask id="mask0_13_81" style="mask-type:luminance" maskUnits="userSpaceOnUse" x="0" y="29" width="142" height="137">
<path d="M0.59375 29.3335H141.667V165.334H0.59375V29.3335Z" fill="white"/>
</mask>
<g mask="url(#mask0_13_81)">
<path fill-rule="evenodd" clip-rule="evenodd" d="M141.313 111.985C132.859 142.146 105.156 164.297 72.2813 164.297C32.7135 164.297 0.59375 132.177 0.59375 92.6097C0.59375 65.4795 15.6094 41.9378 37.7604 29.7607C24.3854 42.0055 15.9271 59.6097 15.9271 79.1722C15.9271 116.151 45.9635 146.188 82.9427 146.188C107.995 146.188 129.828 132.365 141.313 111.985Z" fill="#F9BB4A"/>
</g>
<path fill-rule="evenodd" clip-rule="evenodd" d="M26.1509 72.2293C28.4217 50.3334 44.953 31.7189 67.7342 27.8022C95.1196 23.073 121.182 41.5001 125.854 68.948C129.073 87.6876 121.5 105.802 107.614 116.844C115.443 106.807 119.167 93.6199 116.828 80.0522C112.411 54.4324 88.1196 37.2084 62.4998 41.6251C45.1457 44.5886 31.6405 56.7709 26.1509 72.2293Z" fill="#BBD84C"/>
<mask id="mask1_13_81" style="mask-type:luminance" maskUnits="userSpaceOnUse" x="33" y="0" width="151" height="184">
<path d="M33.6665 0.0366211H183.594V183.037H33.6665V0.0366211Z" fill="white"/>
</mask>
<g mask="url(#mask1_13_81)">
<path fill-rule="evenodd" clip-rule="evenodd" d="M91.7757 0.0366211C142.323 0.0366211 183.338 41.0575 183.338 91.6043C183.338 142.209 142.323 183.167 91.7757 183.167C69.8174 183.167 49.6872 175.469 33.9111 162.594C45.2705 168.714 58.2705 172.188 72.0882 172.188C116.578 172.188 152.672 136.089 152.672 91.6043C152.672 47.1147 116.578 11.021 72.0882 11.021C58.2705 11.021 45.2705 14.4897 33.9111 20.6095C49.6872 7.73975 69.8174 0.0366211 91.7757 0.0366211Z" fill="#2CBEB1"/>
</g>
</svg>
