<svg xmlns="http://www.w3.org/2000/svg" xmlns:xlink="http://www.w3.org/1999/xlink" width="353" zoomAndPan="magnify" viewBox="0 0 264.75 273.749991" height="365" preserveAspectRatio="xMidYMid meet" version="1.0"><defs><g/><clipPath id="78a3bf9a35"><path d="M 67.195312 22 L 173 22 L 173 124 L 67.195312 124 Z M 67.195312 22 " clip-rule="nonzero"/></clipPath><clipPath id="252c79c7e9"><path d="M 92 0.0273438 L 204.445312 0.0273438 L 204.445312 137.277344 L 92 137.277344 Z M 92 0.0273438 " clip-rule="nonzero"/></clipPath></defs><g clip-path="url(#78a3bf9a35)"><path fill="#f9bb4a" d="M 172.734375 83.988281 C 166.394531 106.609375 145.617188 123.222656 120.960938 123.222656 C 91.285156 123.222656 67.195312 99.132812 67.195312 69.457031 C 67.195312 49.109375 78.457031 31.453125 95.070312 22.320312 C 85.039062 31.503906 78.695312 44.707031 78.695312 59.378906 C 78.695312 87.113281 101.222656 109.640625 128.957031 109.640625 C 147.746094 109.640625 164.121094 99.273438 172.734375 83.988281 Z M 172.734375 83.988281 " fill-opacity="1" fill-rule="evenodd"/></g><path fill="#bbd84c" d="M 86.363281 54.171875 C 88.066406 37.75 100.464844 23.789062 117.550781 20.851562 C 138.089844 17.304688 157.636719 31.125 161.140625 51.710938 C 163.554688 65.765625 157.875 79.351562 147.460938 87.632812 C 153.332031 80.105469 156.125 70.214844 154.371094 60.039062 C 151.058594 40.824219 132.839844 27.90625 113.625 31.21875 C 100.609375 33.441406 90.480469 42.578125 86.363281 54.171875 Z M 86.363281 54.171875 " fill-opacity="1" fill-rule="evenodd"/><g clip-path="url(#252c79c7e9)"><path fill="#2cbeb1" d="M 135.582031 0.0273438 C 173.492188 0.0273438 204.253906 30.792969 204.253906 68.703125 C 204.253906 106.65625 173.492188 137.375 135.582031 137.375 C 119.113281 137.375 104.015625 131.601562 92.183594 121.945312 C 100.703125 126.535156 110.453125 129.140625 120.816406 129.140625 C 154.183594 129.140625 181.253906 102.066406 181.253906 68.703125 C 181.253906 35.335938 154.183594 8.265625 120.816406 8.265625 C 110.453125 8.265625 100.703125 10.867188 92.183594 15.457031 C 104.015625 5.804688 119.113281 0.0273438 135.582031 0.0273438 Z M 135.582031 0.0273438 " fill-opacity="1" fill-rule="evenodd"/></g><g fill="#ffffff" fill-opacity="1"><g transform="translate(25.648979, 175.210886)"><g><path d="M 16.933594 0.0585938 L 18.023438 -0.0273438 L 18.570312 0.0273438 L 19.460938 0 L 20.265625 -0.144531 L 20.351562 -0.832031 L 20.148438 -1.492188 L 19.71875 -2.554688 L 18.945312 -4.046875 L 18.542969 -5.109375 L 17.96875 -6.140625 L 16.878906 -8.753906 L 16.589844 -9.183594 L 16.304688 -9.730469 L 16.128906 -10.363281 L 15.871094 -10.792969 L 15.699219 -11.25 L 15.097656 -12.3125 L 14.898438 -12.917969 L 13.003906 -16.90625 L 12.828125 -17.480469 L 12.515625 -17.996094 L 12.34375 -18.511719 L 11.796875 -19.519531 L 11.308594 -20.035156 L 10.363281 -20.320312 L 9.441406 -20.003906 L 8.925781 -19.519531 L 8.667969 -19.03125 L 8.46875 -18.457031 L 8.207031 -18.054688 L 7.0625 -15.414062 L 6.746094 -14.984375 L 6.601562 -14.410156 L 6.285156 -13.863281 L 6.113281 -13.347656 L 3.1875 -7.203125 L 3.015625 -6.574219 L 2.726562 -6.140625 L 2.527344 -5.566406 L 2.007812 -4.648438 L 1.578125 -3.5 L 1.261719 -3.101562 L 1.121094 -2.582031 L 0.546875 -1.433594 L 0.375 -0.859375 L 0.515625 -0.144531 L 1.089844 0.0273438 L 2.210938 -0.0273438 L 2.785156 0.0273438 L 4.390625 -0.0273438 L 5.050781 -0.230469 L 5.597656 -0.746094 L 6.113281 -1.695312 L 6.660156 -2.238281 L 7.261719 -2.554688 L 7.808594 -2.46875 L 9.011719 -2.582031 L 9.527344 -2.496094 L 12.34375 -2.527344 L 12.859375 -2.46875 L 13.488281 -2.554688 L 14.121094 -2.238281 L 14.667969 -1.78125 L 14.925781 -1.234375 L 15.097656 -0.71875 L 15.671875 -0.285156 L 16.332031 0 Z M 10.417969 -7.089844 L 9.84375 -7.203125 L 9.183594 -7.148438 L 8.726562 -7.347656 L 8.695312 -7.894531 L 10.046875 -10.992188 L 10.363281 -11.25 L 10.761719 -11.023438 L 12.113281 -7.863281 L 11.996094 -7.347656 L 11.566406 -7.117188 Z M 10.417969 -7.089844 "/></g></g></g><g fill="#ffffff" fill-opacity="1"><g transform="translate(49.240266, 175.210886)"><g><path d="M 9.617188 0.113281 L 10.761719 0.0585938 L 11.28125 -0.230469 L 11.566406 -0.773438 L 11.566406 -3.617188 L 11.222656 -4.160156 L 10.589844 -4.476562 L 9.988281 -4.476562 L 9.300781 -4.707031 L 8.957031 -5.367188 L 9.042969 -5.914062 L 9.011719 -9.070312 L 9.070312 -9.703125 L 8.957031 -11.769531 L 9.070312 -14.667969 L 9.269531 -15.328125 L 9.902344 -15.585938 L 10.476562 -15.671875 L 11.078125 -15.902344 L 11.367188 -16.359375 L 11.394531 -19.203125 L 11.050781 -19.746094 L 10.535156 -20.0625 L 7.0625 -20.0625 L 6.542969 -20.121094 L 5.96875 -20.003906 L 3.617188 -20.003906 L 3.070312 -20.089844 L 2.410156 -20.089844 L 1.835938 -19.804688 L 1.550781 -19.117188 L 1.636719 -16.992188 L 1.578125 -16.445312 L 1.894531 -15.871094 L 2.527344 -15.558594 L 3.101562 -15.558594 L 3.644531 -15.210938 L 3.902344 -14.4375 L 3.988281 -5.625 L 3.675781 -4.765625 L 1.78125 -4.191406 L 1.464844 -3.675781 L 1.378906 -1.035156 L 1.664062 -0.257812 L 2.238281 0 L 2.785156 0 L 3.328125 -0.0585938 L 4.160156 0.0585938 L 5.050781 0.0273438 L 5.625 -0.0273438 L 6.773438 0.0859375 L 7.636719 -0.0273438 L 9.042969 -0.0273438 Z M 9.617188 0.113281 "/></g></g></g><g fill="#ffffff" fill-opacity="1"><g transform="translate(65.025354, 175.210886)"><g/></g></g><g fill="#ffffff" fill-opacity="1"><g transform="translate(75.558476, 175.210886)"><g><path d="M 9.988281 0.230469 L 11.421875 0.34375 L 13.433594 0.199219 L 15.125 -0.144531 L 15.644531 -0.429688 L 16.246094 -0.632812 L 16.734375 -0.859375 L 18.140625 -1.867188 L 18.945312 -2.667969 L 19.605469 -3.53125 L 20.207031 -4.5625 L 20.953125 -6.746094 L 20.78125 -7.261719 L 20.207031 -7.636719 L 18.597656 -7.519531 L 18.023438 -7.605469 L 17.449219 -7.578125 L 16.878906 -7.605469 L 16.21875 -7.261719 L 15.757812 -6.800781 L 15.46875 -6.257812 L 14.808594 -5.511719 L 14.351562 -5.109375 L 13.921875 -4.9375 L 12.917969 -4.390625 L 11.394531 -4.304688 L 10.5625 -4.390625 L 9.527344 -4.765625 L 8.523438 -5.28125 L 7.691406 -6.027344 L 7.0625 -7.03125 L 6.859375 -7.605469 L 6.660156 -8.007812 L 6.515625 -8.523438 L 6.429688 -9.15625 L 6.429688 -10.90625 L 6.628906 -12.054688 L 7.0625 -13.089844 L 7.347656 -13.632812 L 8.035156 -14.4375 L 8.726562 -14.984375 L 9.5 -15.414062 L 11.421875 -15.671875 L 12.65625 -15.613281 L 13.546875 -15.355469 L 14.0625 -15.15625 L 14.464844 -14.839844 L 15.296875 -14.007812 L 15.613281 -13.578125 L 16.160156 -13.03125 L 16.820312 -12.714844 L 17.335938 -12.773438 L 17.9375 -12.742188 L 18.511719 -12.773438 L 19.316406 -12.6875 L 20.179688 -12.773438 L 20.664062 -13.003906 L 20.867188 -13.578125 L 20.695312 -14.207031 L 20.492188 -14.722656 L 20.320312 -15.328125 L 20.003906 -15.785156 L 19.746094 -16.246094 L 19.34375 -16.734375 L 19.03125 -17.277344 L 18.226562 -18.109375 L 16.273438 -19.34375 L 13.519531 -20.265625 L 12.972656 -20.292969 L 12.398438 -20.378906 L 10.621094 -20.40625 L 7.835938 -19.863281 L 5.710938 -18.859375 L 4.878906 -18.226562 L 3.644531 -17.105469 L 2.871094 -16.128906 L 2.324219 -15.296875 L 1.605469 -13.691406 L 1.320312 -12.515625 L 1.035156 -10.046875 L 1.207031 -7.949219 L 1.605469 -6.316406 L 2.839844 -3.816406 L 4.019531 -2.554688 L 5.308594 -1.433594 L 6.542969 -0.773438 L 7.835938 -0.230469 L 8.351562 -0.113281 L 8.925781 0.0859375 L 9.441406 0.199219 Z M 9.988281 0.230469 "/></g></g></g><g fill="#ffffff" fill-opacity="1"><g transform="translate(100.211635, 175.210886)"><g><path d="M 2.152344 -1.175781 L 2.441406 -0.285156 L 3.273438 0.0859375 L 3.847656 0 L 4.765625 0.0859375 L 5.222656 0.0273438 L 6.085938 0.0273438 L 7.003906 -0.257812 L 7.261719 -1.089844 L 7.261719 -2.066406 L 7.320312 -2.582031 L 7.234375 -3.1875 L 7.289062 -5.023438 L 7.546875 -5.597656 L 8.09375 -5.914062 L 9.757812 -5.683594 L 10.332031 -5.195312 L 10.675781 -4.621094 L 10.90625 -4.105469 L 11.507812 -3.242188 L 12.054688 -2.210938 L 12.371094 -1.78125 L 12.601562 -1.207031 L 12.917969 -0.71875 L 13.546875 -0.199219 L 14.523438 0.0585938 L 16.789062 0.0273438 L 17.335938 0.0859375 L 18.285156 0.0585938 L 18.828125 -0.199219 L 19 -0.832031 L 18.683594 -1.464844 L 18.339844 -1.867188 L 18.109375 -2.410156 L 17.136719 -3.875 L 16.878906 -4.390625 L 15.957031 -5.882812 L 15.613281 -6.316406 L 15.585938 -7.003906 L 15.84375 -7.636719 L 16.246094 -8.066406 L 16.648438 -8.410156 L 17.765625 -10.417969 L 18.140625 -12.082031 L 18.082031 -13.890625 L 17.996094 -14.464844 L 17.480469 -16.101562 L 17.25 -16.589844 L 16.933594 -17.050781 L 15.296875 -18.769531 L 14.292969 -19.316406 L 13.203125 -19.691406 L 11.566406 -20.0625 L 10.648438 -20.089844 L 9.816406 -20.035156 L 8.09375 -20.035156 L 7.519531 -20.148438 L 6.945312 -20.148438 L 6.429688 -20.003906 L 5.855469 -20.003906 L 5.28125 -20.121094 L 4.648438 -20.148438 L 2.957031 -20.003906 L 2.441406 -19.71875 L 2.09375 -18.914062 L 2.125 -12.34375 L 2.179688 -11.769531 L 2.09375 -10.621094 L 2.125 -9.988281 L 2.125 -9.414062 L 2.179688 -8.867188 L 2.125 -8.324219 L 2.09375 -6 L 2.152344 -5.425781 Z M 8.09375 -10.503906 L 7.519531 -10.820312 L 7.289062 -11.28125 L 7.289062 -13.003906 L 7.234375 -13.488281 L 7.289062 -14.695312 L 7.546875 -15.242188 L 8.152344 -15.46875 L 8.726562 -15.441406 L 9.875 -15.558594 L 10.675781 -15.382812 L 11.421875 -15.328125 L 11.96875 -15.183594 L 12.6875 -14.292969 L 12.859375 -13.835938 L 12.972656 -13.089844 L 12.886719 -12.226562 L 12.628906 -11.652344 L 12.3125 -11.222656 L 11.996094 -10.964844 L 11.480469 -10.734375 L 10.648438 -10.535156 L 10.101562 -10.503906 L 8.726562 -10.5625 Z M 8.09375 -10.503906 "/></g></g></g><g fill="#ffffff" fill-opacity="1"><g transform="translate(122.884549, 175.210886)"><g><path d="M 9.988281 0.0859375 L 14.09375 0.0273438 L 14.695312 -0.230469 L 15.011719 -0.832031 L 15.011719 -3.730469 L 14.695312 -4.304688 L 14.09375 -4.5625 L 13.433594 -4.507812 L 12.886719 -4.59375 L 11.421875 -4.621094 L 10.476562 -4.507812 L 9.902344 -4.5625 L 9.269531 -4.535156 L 8.726562 -4.621094 L 8.09375 -4.5625 L 7.492188 -4.851562 L 7.261719 -5.367188 L 7.261719 -7.175781 L 7.519531 -7.777344 L 8.035156 -8.09375 L 8.898438 -8.121094 L 9.816406 -8.035156 L 10.90625 -8.09375 L 12.082031 -8.066406 L 12.65625 -8.121094 L 13.316406 -8.09375 L 13.890625 -8.324219 L 14.09375 -8.898438 L 14.179688 -11.480469 L 13.890625 -12.285156 L 13.230469 -12.65625 L 11.539062 -12.65625 L 10.9375 -12.601562 L 9.730469 -12.6875 L 8.066406 -12.628906 L 7.460938 -12.886719 L 7.234375 -13.777344 L 7.234375 -14.667969 L 7.492188 -15.210938 L 8.121094 -15.441406 L 8.667969 -15.414062 L 9.214844 -15.527344 L 13.316406 -15.46875 L 13.863281 -15.5 L 14.464844 -15.84375 L 14.753906 -16.359375 L 14.722656 -16.933594 L 14.753906 -17.507812 L 14.695312 -19.230469 L 14.4375 -19.777344 L 13.863281 -20.003906 L 13.261719 -20.003906 L 12.742188 -20.121094 L 10.417969 -20.089844 L 9.789062 -20.035156 L 9.214844 -20.089844 L 8.726562 -20.0625 L 8.152344 -20.121094 L 5.796875 -20.0625 L 5.222656 -20.148438 L 4.679688 -20.035156 L 4.160156 -20.089844 L 3.585938 -20.035156 L 3.015625 -20.0625 L 2.410156 -19.832031 L 2.09375 -19.230469 L 2.152344 -18.140625 L 2.066406 -16.964844 L 2.152344 -16.332031 L 2.09375 -13.519531 L 2.179688 -12.917969 L 2.125 -12.371094 L 2.09375 -10.015625 L 2.179688 -9.5 L 2.152344 -4.851562 L 2.09375 -4.304688 L 2.179688 -3.730469 L 2.09375 -1.75 L 2.152344 -1.121094 L 2.382812 -0.34375 L 3.242188 0.0273438 L 5.308594 0.0585938 L 5.941406 0 L 6.457031 0.0273438 L 7.636719 -0.0585938 L 8.179688 0.0585938 L 8.839844 0.0859375 L 9.414062 0.0273438 Z M 9.988281 0.0859375 "/></g></g></g><g fill="#ffffff" fill-opacity="1"><g transform="translate(142.08485, 175.210886)"><g><path d="M 16.933594 0.0585938 L 18.023438 -0.0273438 L 18.570312 0.0273438 L 19.460938 0 L 20.265625 -0.144531 L 20.351562 -0.832031 L 20.148438 -1.492188 L 19.71875 -2.554688 L 18.945312 -4.046875 L 18.542969 -5.109375 L 17.96875 -6.140625 L 16.878906 -8.753906 L 16.589844 -9.183594 L 16.304688 -9.730469 L 16.128906 -10.363281 L 15.871094 -10.792969 L 15.699219 -11.25 L 15.097656 -12.3125 L 14.898438 -12.917969 L 13.003906 -16.90625 L 12.828125 -17.480469 L 12.515625 -17.996094 L 12.34375 -18.511719 L 11.796875 -19.519531 L 11.308594 -20.035156 L 10.363281 -20.320312 L 9.441406 -20.003906 L 8.925781 -19.519531 L 8.667969 -19.03125 L 8.46875 -18.457031 L 8.207031 -18.054688 L 7.0625 -15.414062 L 6.746094 -14.984375 L 6.601562 -14.410156 L 6.285156 -13.863281 L 6.113281 -13.347656 L 3.1875 -7.203125 L 3.015625 -6.574219 L 2.726562 -6.140625 L 2.527344 -5.566406 L 2.007812 -4.648438 L 1.578125 -3.5 L 1.261719 -3.101562 L 1.121094 -2.582031 L 0.546875 -1.433594 L 0.375 -0.859375 L 0.515625 -0.144531 L 1.089844 0.0273438 L 2.210938 -0.0273438 L 2.785156 0.0273438 L 4.390625 -0.0273438 L 5.050781 -0.230469 L 5.597656 -0.746094 L 6.113281 -1.695312 L 6.660156 -2.238281 L 7.261719 -2.554688 L 7.808594 -2.46875 L 9.011719 -2.582031 L 9.527344 -2.496094 L 12.34375 -2.527344 L 12.859375 -2.46875 L 13.488281 -2.554688 L 14.121094 -2.238281 L 14.667969 -1.78125 L 14.925781 -1.234375 L 15.097656 -0.71875 L 15.671875 -0.285156 L 16.332031 0 Z M 10.417969 -7.089844 L 9.84375 -7.203125 L 9.183594 -7.148438 L 8.726562 -7.347656 L 8.695312 -7.894531 L 10.046875 -10.992188 L 10.363281 -11.25 L 10.761719 -11.023438 L 12.113281 -7.863281 L 11.996094 -7.347656 L 11.566406 -7.117188 Z M 10.417969 -7.089844 "/></g></g></g><g fill="#ffffff" fill-opacity="1"><g transform="translate(165.676135, 175.210886)"><g><path d="M 7.492188 0.0585938 L 9.414062 0 L 10.246094 -0.285156 L 10.535156 -1.089844 L 10.621094 -2.582031 L 10.535156 -3.675781 L 10.589844 -4.277344 L 10.5625 -5.425781 L 10.621094 -5.941406 L 10.535156 -6.574219 L 10.589844 -11.195312 L 10.503906 -11.796875 L 10.589844 -14.292969 L 10.820312 -15.15625 L 11.367188 -15.5 L 12.484375 -15.558594 L 13.546875 -15.414062 L 14.148438 -15.5 L 14.667969 -15.46875 L 15.15625 -15.785156 L 15.5 -16.417969 L 15.527344 -19.144531 L 15.210938 -19.71875 L 14.667969 -20.089844 L 12.886719 -20.089844 L 12.34375 -20.148438 L 11.738281 -20.0625 L 11.195312 -20.121094 L 8.867188 -20.003906 L 8.296875 -20.121094 L 7.75 -20.148438 L 7.148438 -20.0625 L 6.515625 -20.121094 L 6 -20.003906 L 4.304688 -20.089844 L 3.414062 -20.003906 L 1.40625 -20.121094 L 0.859375 -19.832031 L 0.515625 -19.171875 L 0.546875 -18.597656 L 0.488281 -17.164062 L 0.546875 -16.273438 L 0.804688 -15.757812 L 1.320312 -15.46875 L 1.894531 -15.527344 L 4.621094 -15.46875 L 5.167969 -15.183594 L 5.480469 -14.609375 L 5.425781 -13.691406 L 5.480469 -12.886719 L 5.453125 -12.257812 L 5.480469 -11.683594 L 5.425781 -10.878906 L 5.511719 -6.601562 L 5.453125 -6.027344 L 5.425781 -3.703125 L 5.480469 -3.101562 L 5.453125 -1.433594 L 5.394531 -0.890625 L 5.769531 -0.257812 L 6.601562 0.0273438 Z M 7.492188 0.0585938 "/></g></g></g><g fill="#ffffff" fill-opacity="1"><g transform="translate(184.474646, 175.210886)"><g><path d="M 9.617188 0.113281 L 10.761719 0.0585938 L 11.28125 -0.230469 L 11.566406 -0.773438 L 11.566406 -3.617188 L 11.222656 -4.160156 L 10.589844 -4.476562 L 9.988281 -4.476562 L 9.300781 -4.707031 L 8.957031 -5.367188 L 9.042969 -5.914062 L 9.011719 -9.070312 L 9.070312 -9.703125 L 8.957031 -11.769531 L 9.070312 -14.667969 L 9.269531 -15.328125 L 9.902344 -15.585938 L 10.476562 -15.671875 L 11.078125 -15.902344 L 11.367188 -16.359375 L 11.394531 -19.203125 L 11.050781 -19.746094 L 10.535156 -20.0625 L 7.0625 -20.0625 L 6.542969 -20.121094 L 5.96875 -20.003906 L 3.617188 -20.003906 L 3.070312 -20.089844 L 2.410156 -20.089844 L 1.835938 -19.804688 L 1.550781 -19.117188 L 1.636719 -16.992188 L 1.578125 -16.445312 L 1.894531 -15.871094 L 2.527344 -15.558594 L 3.101562 -15.558594 L 3.644531 -15.210938 L 3.902344 -14.4375 L 3.988281 -5.625 L 3.675781 -4.765625 L 1.78125 -4.191406 L 1.464844 -3.675781 L 1.378906 -1.035156 L 1.664062 -0.257812 L 2.238281 0 L 2.785156 0 L 3.328125 -0.0585938 L 4.160156 0.0585938 L 5.050781 0.0273438 L 5.625 -0.0273438 L 6.773438 0.0859375 L 7.636719 -0.0273438 L 9.042969 -0.0273438 Z M 9.617188 0.113281 "/></g></g></g><g fill="#ffffff" fill-opacity="1"><g transform="translate(200.259732, 175.210886)"><g><path d="M 9.875 0.257812 L 10.5625 0.0273438 L 11.195312 -0.804688 L 11.566406 -1.605469 L 11.738281 -2.210938 L 12.285156 -3.128906 L 12.457031 -3.703125 L 12.742188 -4.304688 L 12.917969 -4.792969 L 13.230469 -5.308594 L 14.351562 -7.921875 L 14.550781 -8.554688 L 15.070312 -9.472656 L 17.566406 -15.382812 L 17.851562 -15.902344 L 18.339844 -16.933594 L 18.484375 -17.480469 L 19.03125 -18.484375 L 19.230469 -19.257812 L 19.085938 -19.863281 L 18.570312 -19.976562 L 17.96875 -20.035156 L 17.449219 -20.121094 L 16.90625 -20.0625 L 16.332031 -20.035156 L 15.242188 -20.148438 L 14.609375 -19.777344 L 14.121094 -19.289062 L 11.453125 -12.972656 L 11.28125 -12.371094 L 11.023438 -11.882812 L 10.90625 -11.367188 L 10.621094 -10.847656 L 10.046875 -9.242188 L 9.757812 -8.726562 L 9.441406 -8.78125 L 8.726562 -10.332031 L 8.609375 -10.878906 L 8.121094 -11.855469 L 6.6875 -15.585938 L 5.941406 -17.105469 L 5.136719 -19.289062 L 4.648438 -19.777344 L 3.988281 -20.0625 L 2.355469 -20.121094 L 1.78125 -20.035156 L 0.6875 -20.035156 L 0.230469 -19.832031 L 0 -19.257812 L 0.917969 -16.820312 L 1.207031 -16.390625 L 1.347656 -15.84375 L 1.578125 -15.269531 L 1.894531 -14.839844 L 2.09375 -14.238281 L 4.679688 -8.4375 L 4.851562 -7.863281 L 5.566406 -6.371094 L 5.769531 -5.769531 L 6.257812 -4.792969 L 6.574219 -4.277344 L 6.714844 -3.703125 L 7.863281 -0.976562 L 8.121094 -0.546875 L 8.695312 -0.0585938 L 9.328125 0.171875 Z M 9.875 0.257812 "/></g></g></g><g fill="#ffffff" fill-opacity="1"><g transform="translate(222.358673, 175.210886)"><g><path d="M 9.988281 0.0859375 L 14.09375 0.0273438 L 14.695312 -0.230469 L 15.011719 -0.832031 L 15.011719 -3.730469 L 14.695312 -4.304688 L 14.09375 -4.5625 L 13.433594 -4.507812 L 12.886719 -4.59375 L 11.421875 -4.621094 L 10.476562 -4.507812 L 9.902344 -4.5625 L 9.269531 -4.535156 L 8.726562 -4.621094 L 8.09375 -4.5625 L 7.492188 -4.851562 L 7.261719 -5.367188 L 7.261719 -7.175781 L 7.519531 -7.777344 L 8.035156 -8.09375 L 8.898438 -8.121094 L 9.816406 -8.035156 L 10.90625 -8.09375 L 12.082031 -8.066406 L 12.65625 -8.121094 L 13.316406 -8.09375 L 13.890625 -8.324219 L 14.09375 -8.898438 L 14.179688 -11.480469 L 13.890625 -12.285156 L 13.230469 -12.65625 L 11.539062 -12.65625 L 10.9375 -12.601562 L 9.730469 -12.6875 L 8.066406 -12.628906 L 7.460938 -12.886719 L 7.234375 -13.777344 L 7.234375 -14.667969 L 7.492188 -15.210938 L 8.121094 -15.441406 L 8.667969 -15.414062 L 9.214844 -15.527344 L 13.316406 -15.46875 L 13.863281 -15.5 L 14.464844 -15.84375 L 14.753906 -16.359375 L 14.722656 -16.933594 L 14.753906 -17.507812 L 14.695312 -19.230469 L 14.4375 -19.777344 L 13.863281 -20.003906 L 13.261719 -20.003906 L 12.742188 -20.121094 L 10.417969 -20.089844 L 9.789062 -20.035156 L 9.214844 -20.089844 L 8.726562 -20.0625 L 8.152344 -20.121094 L 5.796875 -20.0625 L 5.222656 -20.148438 L 4.679688 -20.035156 L 4.160156 -20.089844 L 3.585938 -20.035156 L 3.015625 -20.0625 L 2.410156 -19.832031 L 2.09375 -19.230469 L 2.152344 -18.140625 L 2.066406 -16.964844 L 2.152344 -16.332031 L 2.09375 -13.519531 L 2.179688 -12.917969 L 2.125 -12.371094 L 2.09375 -10.015625 L 2.179688 -9.5 L 2.152344 -4.851562 L 2.09375 -4.304688 L 2.179688 -3.730469 L 2.09375 -1.75 L 2.152344 -1.121094 L 2.382812 -0.34375 L 3.242188 0.0273438 L 5.308594 0.0585938 L 5.941406 0 L 6.457031 0.0273438 L 7.636719 -0.0585938 L 8.179688 0.0585938 L 8.839844 0.0859375 L 9.414062 0.0273438 Z M 9.988281 0.0859375 "/></g></g></g><g fill="#ffffff" fill-opacity="1"><g transform="translate(80.223196, 214.210885)"><g><path d="M 7.722656 0.257812 L 9.988281 0.316406 L 10.5625 0.257812 L 11.136719 0.113281 L 11.710938 0.0273438 L 12.285156 -0.199219 L 12.800781 -0.257812 L 13.347656 -0.515625 L 15.296875 -1.695312 L 16.128906 -2.554688 L 16.417969 -2.957031 L 16.734375 -3.585938 L 16.90625 -4.105469 L 17.078125 -4.59375 L 17.25 -6.027344 L 17.191406 -6.945312 L 16.761719 -8.609375 L 16.445312 -9.070312 L 15.699219 -9.929688 L 15.183594 -10.390625 L 14.722656 -10.621094 L 14.207031 -10.9375 L 11.96875 -11.625 L 11.394531 -11.710938 L 10.820312 -11.738281 L 10.21875 -11.855469 L 9.386719 -11.855469 L 7.863281 -12.167969 L 6.800781 -12.6875 L 6.371094 -13.089844 L 6.257812 -13.949219 L 6.402344 -14.722656 L 6.746094 -15.097656 L 7.175781 -15.414062 L 7.636719 -15.671875 L 8.152344 -15.785156 L 9.070312 -15.816406 L 9.988281 -15.699219 L 10.503906 -15.558594 L 11.023438 -15.210938 L 11.507812 -14.808594 L 11.941406 -14.238281 L 12.570312 -13.863281 L 13.921875 -13.976562 L 14.695312 -13.921875 L 15.269531 -13.921875 L 15.785156 -13.863281 L 16.332031 -14.265625 L 16.5625 -14.753906 L 16.445312 -15.296875 L 16.390625 -15.84375 L 15.585938 -17.335938 L 14.953125 -18.199219 L 13.058594 -19.519531 L 11.453125 -20.0625 L 10.332031 -20.292969 L 8.121094 -20.351562 L 7.492188 -20.179688 L 6.917969 -20.148438 L 6.402344 -20.0625 L 5.308594 -19.71875 L 4.335938 -19.144531 L 2.957031 -18.199219 L 1.953125 -16.847656 L 1.433594 -15.269531 L 1.347656 -13.863281 L 1.378906 -12.972656 L 1.578125 -11.824219 L 2.039062 -10.820312 L 3.101562 -9.5 L 5.050781 -8.4375 L 6.085938 -8.09375 L 10.589844 -7.578125 L 11.625 -7.089844 L 11.996094 -6.746094 L 12.167969 -6.027344 L 11.941406 -5.308594 L 11.566406 -4.878906 L 10.589844 -4.449219 L 9.703125 -4.390625 L 9.183594 -4.304688 L 7.722656 -4.449219 L 7.234375 -4.707031 L 6.746094 -5.023438 L 5.796875 -6.054688 L 5.222656 -6.285156 L 4.707031 -6.226562 L 4.160156 -6.316406 L 1.953125 -6.199219 L 1.433594 -5.96875 L 1.207031 -5.367188 L 1.292969 -4.792969 L 1.40625 -4.21875 L 1.578125 -3.703125 L 2.125 -2.640625 L 2.527344 -2.265625 L 2.898438 -1.835938 L 3.902344 -1.207031 L 4.304688 -0.773438 L 4.851562 -0.515625 L 5.425781 -0.34375 L 6.542969 0.0585938 Z M 7.722656 0.257812 "/></g></g></g><g fill="#ffffff" fill-opacity="1"><g transform="translate(101.288943, 214.210885)"><g><path d="M 9.875 0.375 L 10.734375 0.285156 L 11.28125 0.316406 L 13.519531 -0.257812 L 14.550781 -0.804688 L 15.5 -1.433594 L 16.304688 -2.238281 L 16.964844 -3.242188 L 17.136719 -3.816406 L 17.421875 -4.304688 L 17.679688 -5.511719 L 17.824219 -6.886719 L 17.824219 -14.636719 L 17.765625 -15.183594 L 17.824219 -15.816406 L 17.765625 -16.273438 L 17.765625 -18.65625 L 17.851562 -19.230469 L 17.480469 -19.832031 L 16.847656 -20.035156 L 15.039062 -19.976562 L 13.835938 -20.0625 L 13.230469 -19.777344 L 12.917969 -19.144531 L 12.972656 -7.835938 L 12.773438 -6.054688 L 12.601562 -5.625 L 12.285156 -5.050781 L 11.796875 -4.707031 L 10.792969 -4.335938 L 9.070312 -4.335938 L 8.410156 -4.476562 L 7.921875 -4.765625 L 7.460938 -5.109375 L 7.117188 -5.566406 L 6.945312 -6.113281 L 6.773438 -7.777344 L 6.859375 -17.019531 L 6.800781 -17.449219 L 6.859375 -18.371094 L 6.800781 -19.203125 L 6.457031 -19.832031 L 5.855469 -20.089844 L 5.308594 -20.089844 L 4.734375 -20.003906 L 3.5 -20.121094 L 2.898438 -20.035156 L 2.296875 -19.804688 L 1.921875 -19.257812 L 1.980469 -18.683594 L 1.980469 -17.996094 L 1.921875 -17.539062 L 2.007812 -13.519531 L 1.921875 -12.945312 L 1.980469 -12.398438 L 1.894531 -7.777344 L 2.066406 -5.480469 L 2.355469 -4.304688 L 2.8125 -3.328125 L 3.472656 -2.296875 L 3.816406 -1.894531 L 4.246094 -1.519531 L 5.167969 -0.917969 L 5.742188 -0.660156 L 6.171875 -0.402344 L 7.261719 0.0859375 L 8.382812 0.316406 L 8.957031 0.316406 Z M 9.875 0.375 "/></g></g></g><g fill="#ffffff" fill-opacity="1"><g transform="translate(123.847057, 214.210885)"><g><path d="M 9.617188 0.113281 L 10.761719 0.0585938 L 11.28125 -0.230469 L 11.566406 -0.773438 L 11.566406 -3.617188 L 11.222656 -4.160156 L 10.589844 -4.476562 L 9.988281 -4.476562 L 9.300781 -4.707031 L 8.957031 -5.367188 L 9.042969 -5.914062 L 9.011719 -9.070312 L 9.070312 -9.703125 L 8.957031 -11.769531 L 9.070312 -14.667969 L 9.269531 -15.328125 L 9.902344 -15.585938 L 10.476562 -15.671875 L 11.078125 -15.902344 L 11.367188 -16.359375 L 11.394531 -19.203125 L 11.050781 -19.746094 L 10.535156 -20.0625 L 7.0625 -20.0625 L 6.542969 -20.121094 L 5.96875 -20.003906 L 3.617188 -20.003906 L 3.070312 -20.089844 L 2.410156 -20.089844 L 1.835938 -19.804688 L 1.550781 -19.117188 L 1.636719 -16.992188 L 1.578125 -16.445312 L 1.894531 -15.871094 L 2.527344 -15.558594 L 3.101562 -15.558594 L 3.644531 -15.210938 L 3.902344 -14.4375 L 3.988281 -5.625 L 3.675781 -4.765625 L 1.78125 -4.191406 L 1.464844 -3.675781 L 1.378906 -1.035156 L 1.664062 -0.257812 L 2.238281 0 L 2.785156 0 L 3.328125 -0.0585938 L 4.160156 0.0585938 L 5.050781 0.0273438 L 5.625 -0.0273438 L 6.773438 0.0859375 L 7.636719 -0.0273438 L 9.042969 -0.0273438 Z M 9.617188 0.113281 "/></g></g></g><g fill="#ffffff" fill-opacity="1"><g transform="translate(139.632146, 214.210885)"><g><path d="M 7.492188 0.0585938 L 9.414062 0 L 10.246094 -0.285156 L 10.535156 -1.089844 L 10.621094 -2.582031 L 10.535156 -3.675781 L 10.589844 -4.277344 L 10.5625 -5.425781 L 10.621094 -5.941406 L 10.535156 -6.574219 L 10.589844 -11.195312 L 10.503906 -11.796875 L 10.589844 -14.292969 L 10.820312 -15.15625 L 11.367188 -15.5 L 12.484375 -15.558594 L 13.546875 -15.414062 L 14.148438 -15.5 L 14.667969 -15.46875 L 15.15625 -15.785156 L 15.5 -16.417969 L 15.527344 -19.144531 L 15.210938 -19.71875 L 14.667969 -20.089844 L 12.886719 -20.089844 L 12.34375 -20.148438 L 11.738281 -20.0625 L 11.195312 -20.121094 L 8.867188 -20.003906 L 8.296875 -20.121094 L 7.75 -20.148438 L 7.148438 -20.0625 L 6.515625 -20.121094 L 6 -20.003906 L 4.304688 -20.089844 L 3.414062 -20.003906 L 1.40625 -20.121094 L 0.859375 -19.832031 L 0.515625 -19.171875 L 0.546875 -18.597656 L 0.488281 -17.164062 L 0.546875 -16.273438 L 0.804688 -15.757812 L 1.320312 -15.46875 L 1.894531 -15.527344 L 4.621094 -15.46875 L 5.167969 -15.183594 L 5.480469 -14.609375 L 5.425781 -13.691406 L 5.480469 -12.886719 L 5.453125 -12.257812 L 5.480469 -11.683594 L 5.425781 -10.878906 L 5.511719 -6.601562 L 5.453125 -6.027344 L 5.425781 -3.703125 L 5.480469 -3.101562 L 5.453125 -1.433594 L 5.394531 -0.890625 L 5.769531 -0.257812 L 6.601562 0.0273438 Z M 7.492188 0.0585938 "/></g></g></g><g fill="#ffffff" fill-opacity="1"><g transform="translate(158.430657, 214.210885)"><g><path d="M 9.988281 0.0859375 L 14.09375 0.0273438 L 14.695312 -0.230469 L 15.011719 -0.832031 L 15.011719 -3.730469 L 14.695312 -4.304688 L 14.09375 -4.5625 L 13.433594 -4.507812 L 12.886719 -4.59375 L 11.421875 -4.621094 L 10.476562 -4.507812 L 9.902344 -4.5625 L 9.269531 -4.535156 L 8.726562 -4.621094 L 8.09375 -4.5625 L 7.492188 -4.851562 L 7.261719 -5.367188 L 7.261719 -7.175781 L 7.519531 -7.777344 L 8.035156 -8.09375 L 8.898438 -8.121094 L 9.816406 -8.035156 L 10.90625 -8.09375 L 12.082031 -8.066406 L 12.65625 -8.121094 L 13.316406 -8.09375 L 13.890625 -8.324219 L 14.09375 -8.898438 L 14.179688 -11.480469 L 13.890625 -12.285156 L 13.230469 -12.65625 L 11.539062 -12.65625 L 10.9375 -12.601562 L 9.730469 -12.6875 L 8.066406 -12.628906 L 7.460938 -12.886719 L 7.234375 -13.777344 L 7.234375 -14.667969 L 7.492188 -15.210938 L 8.121094 -15.441406 L 8.667969 -15.414062 L 9.214844 -15.527344 L 13.316406 -15.46875 L 13.863281 -15.5 L 14.464844 -15.84375 L 14.753906 -16.359375 L 14.722656 -16.933594 L 14.753906 -17.507812 L 14.695312 -19.230469 L 14.4375 -19.777344 L 13.863281 -20.003906 L 13.261719 -20.003906 L 12.742188 -20.121094 L 10.417969 -20.089844 L 9.789062 -20.035156 L 9.214844 -20.089844 L 8.726562 -20.0625 L 8.152344 -20.121094 L 5.796875 -20.0625 L 5.222656 -20.148438 L 4.679688 -20.035156 L 4.160156 -20.089844 L 3.585938 -20.035156 L 3.015625 -20.0625 L 2.410156 -19.832031 L 2.09375 -19.230469 L 2.152344 -18.140625 L 2.066406 -16.964844 L 2.152344 -16.332031 L 2.09375 -13.519531 L 2.179688 -12.917969 L 2.125 -12.371094 L 2.09375 -10.015625 L 2.179688 -9.5 L 2.152344 -4.851562 L 2.09375 -4.304688 L 2.179688 -3.730469 L 2.09375 -1.75 L 2.152344 -1.121094 L 2.382812 -0.34375 L 3.242188 0.0273438 L 5.308594 0.0585938 L 5.941406 0 L 6.457031 0.0273438 L 7.636719 -0.0585938 L 8.179688 0.0585938 L 8.839844 0.0859375 L 9.414062 0.0273438 Z M 9.988281 0.0859375 "/></g></g></g><g fill="#ffffff" fill-opacity="1"><g transform="translate(177.630964, 214.210885)"><g><path d="M 1.035156 -13.433594 L 1.464844 -13.117188 L 3.015625 -13.058594 L 3.328125 -13.117188 L 3.730469 -13.058594 L 4.507812 -13.03125 L 4.9375 -13.488281 L 4.996094 -13.863281 L 5.023438 -14.351562 L 4.996094 -14.753906 L 5.109375 -15.183594 L 5.082031 -15.585938 L 5.28125 -18.054688 L 5.394531 -18.398438 L 5.480469 -19.660156 L 5.109375 -20.035156 L 4.304688 -20.121094 L 3.070312 -20.089844 L 2.667969 -20.035156 L 2.265625 -20.0625 L 1.867188 -20.035156 L 1.433594 -20.0625 L 1.0625 -19.691406 L 1.035156 -19.203125 L 1.089844 -18.800781 Z M 1.035156 -13.433594 "/></g></g></g></svg>